<?xml version="1.0" encoding="UTF-8" standalone="no"?><svg xmlns="http://www.w3.org/2000/svg" xmlns:xlink="http://www.w3.org/1999/xlink" contentStyleType="text/css" height="257px" preserveAspectRatio="none" style="width:617px;height:257px;background:#FFFFFF;" version="1.1" viewBox="0 0 617 257" width="617px" zoomAndPan="magnify"><defs/><g><rect height="26.4883" style="stroke:#00000000;stroke-width:1.0;fill:none;" width="212" x="198.5" y="10"/><text fill="#000000" font-family="sans-serif" font-size="14" font-weight="bold" lengthAdjust="spacing" textLength="202" x="203.5" y="28.5352">Non-Preemptive Scheduling</text><rect fill="#FFFFFF" height="21.3105" style="stroke:#181818;stroke-width:1.0;" width="10" x="54" y="83.9766"/><rect fill="#FFFFFF" height="42.9658" style="stroke:#181818;stroke-width:1.0;" width="10" x="54" y="129.9424"/><rect fill="#FFFFFF" height="24.6553" style="stroke:#181818;stroke-width:1.0;" width="10" x="138" y="105.2871"/><rect fill="#FFFFFF" height="11" style="stroke:#FFFFFF;stroke-width:1.0;" width="10" x="222" y="172.9082"/><line style="stroke:#181818;stroke-width:1.0;" x1="222" x2="222" y1="172.9082" y2="183.9082"/><line style="stroke:#181818;stroke-width:1.0;" x1="232" x2="232" y1="172.9082" y2="183.9082"/><line style="stroke:#181818;stroke-width:1.0;" x1="222" x2="232" y1="172.9082" y2="172.9082"/><rect fill="#FFFFFF" height="1" style="stroke:#FFFFFF;stroke-width:1.0;" width="10" x="222" y="211.9082"/><line style="stroke:#181818;stroke-width:1.0;" x1="222" x2="222" y1="211.9082" y2="212.9082"/><line style="stroke:#181818;stroke-width:1.0;" x1="232" x2="232" y1="211.9082" y2="212.9082"/><line style="stroke:#181818;stroke-width:0.5;stroke-dasharray:5.0,5.0;" x1="59" x2="59" y1="73.9766" y2="183.9082"/><line style="stroke:#A80036;stroke-width:1.0;stroke-dasharray:1.0,4.0;" x1="59" x2="59" y1="183.9082" y2="211.9082"/><line style="stroke:#181818;stroke-width:0.5;stroke-dasharray:5.0,5.0;" x1="59" x2="59" y1="211.9082" y2="221.9082"/><line style="stroke:#181818;stroke-width:0.5;stroke-dasharray:5.0,5.0;" x1="142.5" x2="142.5" y1="73.9766" y2="183.9082"/><line style="stroke:#A80036;stroke-width:1.0;stroke-dasharray:1.0,4.0;" x1="142.5" x2="142.5" y1="183.9082" y2="211.9082"/><line style="stroke:#181818;stroke-width:0.5;stroke-dasharray:5.0,5.0;" x1="142.5" x2="142.5" y1="211.9082" y2="221.9082"/><line style="stroke:#181818;stroke-width:0.5;stroke-dasharray:5.0,5.0;" x1="226.5" x2="226.5" y1="73.9766" y2="183.9082"/><line style="stroke:#A80036;stroke-width:1.0;stroke-dasharray:1.0,4.0;" x1="226.5" x2="226.5" y1="183.9082" y2="211.9082"/><line style="stroke:#181818;stroke-width:0.5;stroke-dasharray:5.0,5.0;" x1="226.5" x2="226.5" y1="211.9082" y2="221.9082"/><rect fill="#E2E2F0" height="30.4883" rx="2.5" ry="2.5" style="stroke:#181818;stroke-width:0.5;" width="108" x="5" y="42.4883"/><text fill="#000000" font-family="sans-serif" font-size="14" lengthAdjust="spacing" textLength="94" x="12" y="63.0234">Low Prio Task</text><rect fill="#E2E2F0" height="30.4883" rx="2.5" ry="2.5" style="stroke:#181818;stroke-width:0.5;" width="108" x="5" y="220.9082"/><text fill="#000000" font-family="sans-serif" font-size="14" lengthAdjust="spacing" textLength="94" x="12" y="241.4434">Low Prio Task</text><rect fill="#E2E2F0" height="30.4883" rx="2.5" ry="2.5" style="stroke:#181818;stroke-width:0.5;" width="35" x="125.5" y="42.4883"/><text fill="#000000" font-family="sans-serif" font-size="14" lengthAdjust="spacing" textLength="21" x="132.5" y="63.0234">ISR</text><rect fill="#E2E2F0" height="30.4883" rx="2.5" ry="2.5" style="stroke:#181818;stroke-width:0.5;" width="35" x="125.5" y="220.9082"/><text fill="#000000" font-family="sans-serif" font-size="14" lengthAdjust="spacing" textLength="21" x="132.5" y="241.4434">ISR</text><rect fill="#E2E2F0" height="30.4883" rx="2.5" ry="2.5" style="stroke:#181818;stroke-width:0.5;" width="113" x="170.5" y="42.4883"/><text fill="#000000" font-family="sans-serif" font-size="14" lengthAdjust="spacing" textLength="99" x="177.5" y="63.0234">High Prio Task</text><rect fill="#E2E2F0" height="30.4883" rx="2.5" ry="2.5" style="stroke:#181818;stroke-width:0.5;" width="113" x="170.5" y="220.9082"/><text fill="#000000" font-family="sans-serif" font-size="14" lengthAdjust="spacing" textLength="99" x="177.5" y="241.4434">High Prio Task</text><rect fill="#FFFFFF" height="21.3105" style="stroke:#181818;stroke-width:1.0;" width="10" x="54" y="83.9766"/><rect fill="#FFFFFF" height="42.9658" style="stroke:#181818;stroke-width:1.0;" width="10" x="54" y="129.9424"/><rect fill="#FFFFFF" height="24.6553" style="stroke:#181818;stroke-width:1.0;" width="10" x="138" y="105.2871"/><rect fill="#FFFFFF" height="11" style="stroke:#FFFFFF;stroke-width:1.0;" width="10" x="222" y="172.9082"/><line style="stroke:#181818;stroke-width:1.0;" x1="222" x2="222" y1="172.9082" y2="183.9082"/><line style="stroke:#181818;stroke-width:1.0;" x1="232" x2="232" y1="172.9082" y2="183.9082"/><line style="stroke:#181818;stroke-width:1.0;" x1="222" x2="232" y1="172.9082" y2="172.9082"/><rect fill="#FFFFFF" height="1" style="stroke:#FFFFFF;stroke-width:1.0;" width="10" x="222" y="211.9082"/><line style="stroke:#181818;stroke-width:1.0;" x1="222" x2="222" y1="211.9082" y2="212.9082"/><line style="stroke:#181818;stroke-width:1.0;" x1="232" x2="232" y1="211.9082" y2="212.9082"/><polygon fill="#181818" points="126,101.2871,136,105.2871,126,109.2871,130,105.2871" style="stroke:#181818;stroke-width:1.0;"/><line style="stroke:#181818;stroke-width:1.0;" x1="59" x2="132" y1="105.2871" y2="105.2871"/><text fill="#000000" font-family="sans-serif" font-size="13" lengthAdjust="spacing" textLength="55" x="66" y="100.5449">interrupt</text><polygon fill="#181818" points="75,125.9424,65,129.9424,75,133.9424,71,129.9424" style="stroke:#181818;stroke-width:1.0;"/><line style="stroke:#181818;stroke-width:1.0;" x1="69" x2="142" y1="129.9424" y2="129.9424"/><path d="M153,118.2871 L153,143.2871 L364,143.2871 L364,128.2871 L354,118.2871 L153,118.2871 " fill="#FEFFDD" style="stroke:#181818;stroke-width:0.5;"/><path d="M354,118.2871 L354,128.2871 L364,128.2871 L354,118.2871 " fill="#FEFFDD" style="stroke:#181818;stroke-width:0.5;"/><text fill="#000000" font-family="sans-serif" font-size="13" lengthAdjust="spacing" textLength="190" x="159" y="135.8555">High Prio Task becomes ready</text><polygon fill="#181818" points="210,168.9082,220,172.9082,210,176.9082,214,172.9082" style="stroke:#181818;stroke-width:1.0;"/><line style="stroke:#181818;stroke-width:1.0;" x1="59" x2="216" y1="172.9082" y2="172.9082"/><text fill="#000000" font-family="sans-serif" font-size="13" lengthAdjust="spacing" textLength="61" x="66" y="168.166">Scheduler</text><path d="M237,153.5977 L237,178.5977 L610,178.5977 L610,163.5977 L600,153.5977 L237,153.5977 " fill="#FEFFDD" style="stroke:#181818;stroke-width:0.5;"/><path d="M600,153.5977 L600,163.5977 L610,163.5977 L600,153.5977 " fill="#FEFFDD" style="stroke:#181818;stroke-width:0.5;"/><text fill="#000000" font-family="sans-serif" font-size="13" lengthAdjust="spacing" textLength="352" x="243" y="171.166">Hig Prio Task can only run after Low Prio Task yiels CPU</text><!--MD5=[303c6307a9f8d8c24d8831b471267d01]
@startuml

title Non-Preemptive Scheduling

activate "Low Prio Task"
"Low Prio Task" -> "ISR": interrupt
deactivate "Low Prio Task"

activate ISR
ISR -> "Low Prio Task"
note right: High Prio Task becomes ready

deactivate ISR
activate "Low Prio Task"
"Low Prio Task" -> "High Prio Task": Scheduler
deactivate "Low Prio Task"
activate "High Prio Task"
note right: Hig Prio Task can only run after Low Prio Task yiels CPU
...

@enduml

PlantUML version 1.2022.4(Sat Apr 09 15:29:17 CEST 2022)
(GPL source distribution)
Java Runtime: OpenJDK Runtime Environment
JVM: OpenJDK 64-Bit Server VM
Default Encoding: UTF-8
Language: de
Country: CH
--></g></svg>