<?xml version="1.0" encoding="UTF-8" standalone="no"?><svg xmlns="http://www.w3.org/2000/svg" xmlns:xlink="http://www.w3.org/1999/xlink" contentStyleType="text/css" height="251px" preserveAspectRatio="none" style="width:298px;height:251px;background:#FFFFFF;" version="1.1" viewBox="0 0 298 251" width="298px" zoomAndPan="magnify"><defs/><g><rect height="26.4883" style="stroke:#00000000;stroke-width:1.0;fill:none;" width="280" x="5" y="10"/><text fill="#000000" font-family="sans-serif" font-size="14" font-weight="bold" lengthAdjust="spacing" textLength="270" x="10" y="28.5352">Preemptive Priority Based Scheduling</text><rect fill="#FFFFFF" height="56.6211" style="stroke:#181818;stroke-width:1.0;" width="10" x="40.5" y="83.9766"/><rect fill="#FFFFFF" height="9" style="stroke:#181818;stroke-width:1.0;" width="10" x="40.5" y="197.9082"/><rect fill="#FFFFFF" height="29.3105" style="stroke:#181818;stroke-width:1.0;" width="10" x="140.5" y="140.5977"/><rect fill="#FFFFFF" height="14" style="stroke:#181818;stroke-width:1.0;" width="10" x="140.5" y="183.9082"/><rect fill="#FFFFFF" height="14" style="stroke:#181818;stroke-width:1.0;" width="10" x="240.5" y="169.9082"/><line style="stroke:#181818;stroke-width:0.5;stroke-dasharray:5.0,5.0;" x1="45" x2="45" y1="73.9766" y2="215.9082"/><line style="stroke:#181818;stroke-width:0.5;stroke-dasharray:5.0,5.0;" x1="145" x2="145" y1="73.9766" y2="215.9082"/><line style="stroke:#181818;stroke-width:0.5;stroke-dasharray:5.0,5.0;" x1="245" x2="245" y1="73.9766" y2="215.9082"/><rect fill="#E2E2F0" height="30.4883" rx="2.5" ry="2.5" style="stroke:#181818;stroke-width:0.5;" width="59" x="16" y="42.4883"/><text fill="#000000" font-family="sans-serif" font-size="14" lengthAdjust="spacing" textLength="45" x="23" y="63.0234">Task 1</text><rect fill="#E2E2F0" height="30.4883" rx="2.5" ry="2.5" style="stroke:#181818;stroke-width:0.5;" width="59" x="16" y="214.9082"/><text fill="#000000" font-family="sans-serif" font-size="14" lengthAdjust="spacing" textLength="45" x="23" y="235.4434">Task 1</text><rect fill="#E2E2F0" height="30.4883" rx="2.5" ry="2.5" style="stroke:#181818;stroke-width:0.5;" width="59" x="116" y="42.4883"/><text fill="#000000" font-family="sans-serif" font-size="14" lengthAdjust="spacing" textLength="45" x="123" y="63.0234">Task 2</text><rect fill="#E2E2F0" height="30.4883" rx="2.5" ry="2.5" style="stroke:#181818;stroke-width:0.5;" width="59" x="116" y="214.9082"/><text fill="#000000" font-family="sans-serif" font-size="14" lengthAdjust="spacing" textLength="45" x="123" y="235.4434">Task 2</text><rect fill="#E2E2F0" height="30.4883" rx="2.5" ry="2.5" style="stroke:#181818;stroke-width:0.5;" width="59" x="216" y="42.4883"/><text fill="#000000" font-family="sans-serif" font-size="14" lengthAdjust="spacing" textLength="45" x="223" y="63.0234">Task 3</text><rect fill="#E2E2F0" height="30.4883" rx="2.5" ry="2.5" style="stroke:#181818;stroke-width:0.5;" width="59" x="216" y="214.9082"/><text fill="#000000" font-family="sans-serif" font-size="14" lengthAdjust="spacing" textLength="45" x="223" y="235.4434">Task 3</text><rect fill="#FFFFFF" height="56.6211" style="stroke:#181818;stroke-width:1.0;" width="10" x="40.5" y="83.9766"/><rect fill="#FFFFFF" height="9" style="stroke:#181818;stroke-width:1.0;" width="10" x="40.5" y="197.9082"/><rect fill="#FFFFFF" height="29.3105" style="stroke:#181818;stroke-width:1.0;" width="10" x="140.5" y="140.5977"/><rect fill="#FFFFFF" height="14" style="stroke:#181818;stroke-width:1.0;" width="10" x="140.5" y="183.9082"/><rect fill="#FFFFFF" height="14" style="stroke:#181818;stroke-width:1.0;" width="10" x="240.5" y="169.9082"/><path d="M18,88.9766 L18,113.9766 L272,113.9766 L272,98.9766 L262,88.9766 L18,88.9766 " fill="#FEFFDD" style="stroke:#181818;stroke-width:0.5;"/><path d="M262,88.9766 L262,98.9766 L272,98.9766 L262,88.9766 " fill="#FEFFDD" style="stroke:#181818;stroke-width:0.5;"/><text fill="#000000" font-family="sans-serif" font-size="13" lengthAdjust="spacing" textLength="120" x="80.5" y="106.5449">higher priority --&gt;</text><polygon fill="#181818" points="128.5,136.5977,138.5,140.5977,128.5,144.5977,132.5,140.5977" style="stroke:#181818;stroke-width:1.0;"/><line style="stroke:#181818;stroke-width:1.0;stroke-dasharray:2.0,2.0;" x1="45.5" x2="134.5" y1="140.5977" y2="140.5977"/><text fill="#000000" font-family="sans-serif" font-size="13" lengthAdjust="spacing" textLength="71" x="52.5" y="135.8555">Preemption</text><polygon fill="#181818" points="228.5,165.9082,238.5,169.9082,228.5,173.9082,232.5,169.9082" style="stroke:#181818;stroke-width:1.0;"/><line style="stroke:#181818;stroke-width:1.0;stroke-dasharray:2.0,2.0;" x1="145.5" x2="234.5" y1="169.9082" y2="169.9082"/><text fill="#000000" font-family="sans-serif" font-size="13" lengthAdjust="spacing" textLength="71" x="152.5" y="165.166">Preemption</text><polygon fill="#181818" points="161.5,179.9082,151.5,183.9082,161.5,187.9082,157.5,183.9082" style="stroke:#181818;stroke-width:1.0;"/><line style="stroke:#181818;stroke-width:1.0;stroke-dasharray:2.0,2.0;" x1="155.5" x2="244.5" y1="183.9082" y2="183.9082"/><polygon fill="#181818" points="61.5,193.9082,51.5,197.9082,61.5,201.9082,57.5,197.9082" style="stroke:#181818;stroke-width:1.0;"/><line style="stroke:#181818;stroke-width:1.0;stroke-dasharray:2.0,2.0;" x1="55.5" x2="144.5" y1="197.9082" y2="197.9082"/><!--MD5=[f27f2124b1e03188c5fb985d0639f913]
@startuml

title Preemptive Priority Based Scheduling
note across: higher priority - ->

activate "Task 1"
"Task 1" - -> "Task 2" - -++: Preemption
"Task 2" - -> "Task 3" - -++: Preemption
"Task 3" - -> "Task 2" - -++:
"Task 2" - -> "Task 1" - -++:

@enduml

PlantUML version 1.2022.4(Sat Apr 09 15:29:17 CEST 2022)
(GPL source distribution)
Java Runtime: OpenJDK Runtime Environment
JVM: OpenJDK 64-Bit Server VM
Default Encoding: UTF-8
Language: de
Country: CH
--></g></svg>