<?xml version="1.0" encoding="UTF-8" standalone="no"?><svg xmlns="http://www.w3.org/2000/svg" xmlns:xlink="http://www.w3.org/1999/xlink" contentStyleType="text/css" height="407px" preserveAspectRatio="none" style="width:790px;height:407px;background:#FFFFFF;" version="1.1" viewBox="0 0 790 407" width="790px" zoomAndPan="magnify"><defs/><g><rect height="26.4883" style="stroke:#00000000;stroke-width:1.0;fill:none;" width="186" x="301" y="10"/><text fill="#000000" font-family="sans-serif" font-size="14" font-weight="bold" lengthAdjust="spacing" textLength="176" x="306" y="28.5352">Round Robin Scheduling</text><rect fill="#FFFFFF" height="24.3105" style="stroke:#181818;stroke-width:1.0;" width="10" x="530" y="83.9766"/><rect fill="#FFFFFF" height="35.3105" style="stroke:#181818;stroke-width:1.0;" width="10" x="530" y="171.5977"/><rect fill="#FFFFFF" height="29.3105" style="stroke:#181818;stroke-width:1.0;" width="10" x="530" y="267.2188"/><rect fill="#FFFFFF" height="11" style="stroke:#FFFFFF;stroke-width:1.0;" width="10" x="611" y="108.2871"/><line style="stroke:#181818;stroke-width:1.0;" x1="611" x2="611" y1="108.2871" y2="119.2871"/><line style="stroke:#181818;stroke-width:1.0;" x1="621" x2="621" y1="108.2871" y2="119.2871"/><line style="stroke:#181818;stroke-width:1.0;" x1="611" x2="621" y1="108.2871" y2="108.2871"/><rect fill="#FFFFFF" height="24.3105" style="stroke:#FFFFFF;stroke-width:1.0;" width="10" x="611" y="147.2871"/><line style="stroke:#181818;stroke-width:1.0;" x1="611" x2="611" y1="147.2871" y2="171.5977"/><line style="stroke:#181818;stroke-width:1.0;" x1="621" x2="621" y1="147.2871" y2="171.5977"/><line style="stroke:#181818;stroke-width:1.0;" x1="611" x2="621" y1="171.5977" y2="171.5977"/><rect fill="#FFFFFF" height="11" style="stroke:#FFFFFF;stroke-width:1.0;" width="10" x="680" y="206.9082"/><line style="stroke:#181818;stroke-width:1.0;" x1="680" x2="680" y1="206.9082" y2="217.9082"/><line style="stroke:#181818;stroke-width:1.0;" x1="690" x2="690" y1="206.9082" y2="217.9082"/><line style="stroke:#181818;stroke-width:1.0;" x1="680" x2="690" y1="206.9082" y2="206.9082"/><rect fill="#FFFFFF" height="21.3105" style="stroke:#FFFFFF;stroke-width:1.0;" width="10" x="680" y="245.9082"/><line style="stroke:#181818;stroke-width:1.0;" x1="680" x2="680" y1="245.9082" y2="267.2188"/><line style="stroke:#181818;stroke-width:1.0;" x1="690" x2="690" y1="245.9082" y2="267.2188"/><line style="stroke:#181818;stroke-width:1.0;" x1="680" x2="690" y1="267.2188" y2="267.2188"/><rect fill="#FFFFFF" height="8" style="stroke:#FFFFFF;stroke-width:1.0;" width="10" x="749" y="296.5293"/><line style="stroke:#181818;stroke-width:1.0;" x1="749" x2="749" y1="296.5293" y2="304.5293"/><line style="stroke:#181818;stroke-width:1.0;" x1="759" x2="759" y1="296.5293" y2="304.5293"/><line style="stroke:#181818;stroke-width:1.0;" x1="749" x2="759" y1="296.5293" y2="296.5293"/><rect fill="#FFFFFF" height="21.3105" style="stroke:#FFFFFF;stroke-width:1.0;" width="10" x="749" y="332.5293"/><line style="stroke:#181818;stroke-width:1.0;" x1="749" x2="749" y1="332.5293" y2="353.8398"/><line style="stroke:#181818;stroke-width:1.0;" x1="759" x2="759" y1="332.5293" y2="353.8398"/><line style="stroke:#181818;stroke-width:1.0;" x1="749" x2="759" y1="353.8398" y2="353.8398"/><line style="stroke:#181818;stroke-width:0.5;stroke-dasharray:5.0,5.0;" x1="535" x2="535" y1="73.9766" y2="119.2871"/><line style="stroke:#A80036;stroke-width:1.0;stroke-dasharray:1.0,4.0;" x1="535" x2="535" y1="119.2871" y2="147.2871"/><line style="stroke:#181818;stroke-width:0.5;stroke-dasharray:5.0,5.0;" x1="535" x2="535" y1="147.2871" y2="217.9082"/><line style="stroke:#A80036;stroke-width:1.0;stroke-dasharray:1.0,4.0;" x1="535" x2="535" y1="217.9082" y2="245.9082"/><line style="stroke:#181818;stroke-width:0.5;stroke-dasharray:5.0,5.0;" x1="535" x2="535" y1="245.9082" y2="304.5293"/><line style="stroke:#A80036;stroke-width:1.0;stroke-dasharray:1.0,4.0;" x1="535" x2="535" y1="304.5293" y2="332.5293"/><line style="stroke:#181818;stroke-width:0.5;stroke-dasharray:5.0,5.0;" x1="535" x2="535" y1="332.5293" y2="371.8398"/><line style="stroke:#181818;stroke-width:0.5;stroke-dasharray:5.0,5.0;" x1="616" x2="616" y1="73.9766" y2="119.2871"/><line style="stroke:#A80036;stroke-width:1.0;stroke-dasharray:1.0,4.0;" x1="616" x2="616" y1="119.2871" y2="147.2871"/><line style="stroke:#181818;stroke-width:0.5;stroke-dasharray:5.0,5.0;" x1="616" x2="616" y1="147.2871" y2="217.9082"/><line style="stroke:#A80036;stroke-width:1.0;stroke-dasharray:1.0,4.0;" x1="616" x2="616" y1="217.9082" y2="245.9082"/><line style="stroke:#181818;stroke-width:0.5;stroke-dasharray:5.0,5.0;" x1="616" x2="616" y1="245.9082" y2="304.5293"/><line style="stroke:#A80036;stroke-width:1.0;stroke-dasharray:1.0,4.0;" x1="616" x2="616" y1="304.5293" y2="332.5293"/><line style="stroke:#181818;stroke-width:0.5;stroke-dasharray:5.0,5.0;" x1="616" x2="616" y1="332.5293" y2="371.8398"/><line style="stroke:#181818;stroke-width:0.5;stroke-dasharray:5.0,5.0;" x1="685" x2="685" y1="73.9766" y2="119.2871"/><line style="stroke:#A80036;stroke-width:1.0;stroke-dasharray:1.0,4.0;" x1="685" x2="685" y1="119.2871" y2="147.2871"/><line style="stroke:#181818;stroke-width:0.5;stroke-dasharray:5.0,5.0;" x1="685" x2="685" y1="147.2871" y2="217.9082"/><line style="stroke:#A80036;stroke-width:1.0;stroke-dasharray:1.0,4.0;" x1="685" x2="685" y1="217.9082" y2="245.9082"/><line style="stroke:#181818;stroke-width:0.5;stroke-dasharray:5.0,5.0;" x1="685" x2="685" y1="245.9082" y2="304.5293"/><line style="stroke:#A80036;stroke-width:1.0;stroke-dasharray:1.0,4.0;" x1="685" x2="685" y1="304.5293" y2="332.5293"/><line style="stroke:#181818;stroke-width:0.5;stroke-dasharray:5.0,5.0;" x1="685" x2="685" y1="332.5293" y2="371.8398"/><line style="stroke:#181818;stroke-width:0.5;stroke-dasharray:5.0,5.0;" x1="754" x2="754" y1="73.9766" y2="119.2871"/><line style="stroke:#A80036;stroke-width:1.0;stroke-dasharray:1.0,4.0;" x1="754" x2="754" y1="119.2871" y2="147.2871"/><line style="stroke:#181818;stroke-width:0.5;stroke-dasharray:5.0,5.0;" x1="754" x2="754" y1="147.2871" y2="217.9082"/><line style="stroke:#A80036;stroke-width:1.0;stroke-dasharray:1.0,4.0;" x1="754" x2="754" y1="217.9082" y2="245.9082"/><line style="stroke:#181818;stroke-width:0.5;stroke-dasharray:5.0,5.0;" x1="754" x2="754" y1="245.9082" y2="304.5293"/><line style="stroke:#A80036;stroke-width:1.0;stroke-dasharray:1.0,4.0;" x1="754" x2="754" y1="304.5293" y2="332.5293"/><line style="stroke:#181818;stroke-width:0.5;stroke-dasharray:5.0,5.0;" x1="754" x2="754" y1="332.5293" y2="371.8398"/><rect fill="#E2E2F0" height="30.4883" rx="2.5" ry="2.5" style="stroke:#181818;stroke-width:0.5;" width="82" x="494" y="42.4883"/><text fill="#000000" font-family="sans-serif" font-size="14" lengthAdjust="spacing" textLength="68" x="501" y="63.0234">Scheduler</text><rect fill="#E2E2F0" height="30.4883" rx="2.5" ry="2.5" style="stroke:#181818;stroke-width:0.5;" width="82" x="494" y="370.8398"/><text fill="#000000" font-family="sans-serif" font-size="14" lengthAdjust="spacing" textLength="68" x="501" y="391.375">Scheduler</text><rect fill="#E2E2F0" height="30.4883" rx="2.5" ry="2.5" style="stroke:#181818;stroke-width:0.5;" width="60" x="586" y="42.4883"/><text fill="#000000" font-family="sans-serif" font-size="14" lengthAdjust="spacing" textLength="46" x="593" y="63.0234">Task A</text><rect fill="#E2E2F0" height="30.4883" rx="2.5" ry="2.5" style="stroke:#181818;stroke-width:0.5;" width="60" x="586" y="370.8398"/><text fill="#000000" font-family="sans-serif" font-size="14" lengthAdjust="spacing" textLength="46" x="593" y="391.375">Task A</text><rect fill="#E2E2F0" height="30.4883" rx="2.5" ry="2.5" style="stroke:#181818;stroke-width:0.5;" width="58" x="656" y="42.4883"/><text fill="#000000" font-family="sans-serif" font-size="14" lengthAdjust="spacing" textLength="44" x="663" y="63.0234">Task B</text><rect fill="#E2E2F0" height="30.4883" rx="2.5" ry="2.5" style="stroke:#181818;stroke-width:0.5;" width="58" x="656" y="370.8398"/><text fill="#000000" font-family="sans-serif" font-size="14" lengthAdjust="spacing" textLength="44" x="663" y="391.375">Task B</text><rect fill="#E2E2F0" height="30.4883" rx="2.5" ry="2.5" style="stroke:#181818;stroke-width:0.5;" width="60" x="724" y="42.4883"/><text fill="#000000" font-family="sans-serif" font-size="14" lengthAdjust="spacing" textLength="46" x="731" y="63.0234">Task C</text><rect fill="#E2E2F0" height="30.4883" rx="2.5" ry="2.5" style="stroke:#181818;stroke-width:0.5;" width="60" x="724" y="370.8398"/><text fill="#000000" font-family="sans-serif" font-size="14" lengthAdjust="spacing" textLength="46" x="731" y="391.375">Task C</text><rect fill="#FFFFFF" height="24.3105" style="stroke:#181818;stroke-width:1.0;" width="10" x="530" y="83.9766"/><rect fill="#FFFFFF" height="35.3105" style="stroke:#181818;stroke-width:1.0;" width="10" x="530" y="171.5977"/><rect fill="#FFFFFF" height="29.3105" style="stroke:#181818;stroke-width:1.0;" width="10" x="530" y="267.2188"/><rect fill="#FFFFFF" height="11" style="stroke:#FFFFFF;stroke-width:1.0;" width="10" x="611" y="108.2871"/><line style="stroke:#181818;stroke-width:1.0;" x1="611" x2="611" y1="108.2871" y2="119.2871"/><line style="stroke:#181818;stroke-width:1.0;" x1="621" x2="621" y1="108.2871" y2="119.2871"/><line style="stroke:#181818;stroke-width:1.0;" x1="611" x2="621" y1="108.2871" y2="108.2871"/><rect fill="#FFFFFF" height="24.3105" style="stroke:#FFFFFF;stroke-width:1.0;" width="10" x="611" y="147.2871"/><line style="stroke:#181818;stroke-width:1.0;" x1="611" x2="611" y1="147.2871" y2="171.5977"/><line style="stroke:#181818;stroke-width:1.0;" x1="621" x2="621" y1="147.2871" y2="171.5977"/><line style="stroke:#181818;stroke-width:1.0;" x1="611" x2="621" y1="171.5977" y2="171.5977"/><rect fill="#FFFFFF" height="11" style="stroke:#FFFFFF;stroke-width:1.0;" width="10" x="680" y="206.9082"/><line style="stroke:#181818;stroke-width:1.0;" x1="680" x2="680" y1="206.9082" y2="217.9082"/><line style="stroke:#181818;stroke-width:1.0;" x1="690" x2="690" y1="206.9082" y2="217.9082"/><line style="stroke:#181818;stroke-width:1.0;" x1="680" x2="690" y1="206.9082" y2="206.9082"/><rect fill="#FFFFFF" height="21.3105" style="stroke:#FFFFFF;stroke-width:1.0;" width="10" x="680" y="245.9082"/><line style="stroke:#181818;stroke-width:1.0;" x1="680" x2="680" y1="245.9082" y2="267.2188"/><line style="stroke:#181818;stroke-width:1.0;" x1="690" x2="690" y1="245.9082" y2="267.2188"/><line style="stroke:#181818;stroke-width:1.0;" x1="680" x2="690" y1="267.2188" y2="267.2188"/><rect fill="#FFFFFF" height="8" style="stroke:#FFFFFF;stroke-width:1.0;" width="10" x="749" y="296.5293"/><line style="stroke:#181818;stroke-width:1.0;" x1="749" x2="749" y1="296.5293" y2="304.5293"/><line style="stroke:#181818;stroke-width:1.0;" x1="759" x2="759" y1="296.5293" y2="304.5293"/><line style="stroke:#181818;stroke-width:1.0;" x1="749" x2="759" y1="296.5293" y2="296.5293"/><rect fill="#FFFFFF" height="21.3105" style="stroke:#FFFFFF;stroke-width:1.0;" width="10" x="749" y="332.5293"/><line style="stroke:#181818;stroke-width:1.0;" x1="749" x2="749" y1="332.5293" y2="353.8398"/><line style="stroke:#181818;stroke-width:1.0;" x1="759" x2="759" y1="332.5293" y2="353.8398"/><line style="stroke:#181818;stroke-width:1.0;" x1="749" x2="759" y1="353.8398" y2="353.8398"/><polygon fill="#181818" points="599,104.2871,609,108.2871,599,112.2871,603,108.2871" style="stroke:#181818;stroke-width:1.0;"/><line style="stroke:#181818;stroke-width:1.0;" x1="535" x2="605" y1="108.2871" y2="108.2871"/><text fill="#000000" font-family="sans-serif" font-size="13" lengthAdjust="spacing" textLength="29" x="542" y="103.5449">start</text><path d="M5,88.9766 L5,113.9766 L525,113.9766 L525,98.9766 L515,88.9766 L5,88.9766 " fill="#FEFFDD" style="stroke:#181818;stroke-width:0.5;"/><path d="M515,88.9766 L515,98.9766 L525,98.9766 L515,88.9766 " fill="#FEFFDD" style="stroke:#181818;stroke-width:0.5;"/><text fill="#000000" font-family="sans-serif" font-size="13" lengthAdjust="spacing" textLength="499" x="11" y="106.5449">Der Scheduler startet einen Prozess und lässt ihn für eine definierte Zeit laufen.</text><polygon fill="#181818" points="604,167.5977,614,171.5977,604,175.5977,608,171.5977" style="stroke:#181818;stroke-width:1.0;"/><line style="stroke:#181818;stroke-width:1.0;" x1="540" x2="610" y1="171.5977" y2="171.5977"/><text fill="#000000" font-family="sans-serif" font-size="13" lengthAdjust="spacing" textLength="28" x="547" y="166.8555">stop</text><path d="M143,152.2871 L143,177.2871 L525,177.2871 L525,162.2871 L515,152.2871 L143,152.2871 " fill="#FEFFDD" style="stroke:#181818;stroke-width:0.5;"/><path d="M515,152.2871 L515,162.2871 L525,162.2871 L515,152.2871 " fill="#FEFFDD" style="stroke:#181818;stroke-width:0.5;"/><text fill="#000000" font-family="sans-serif" font-size="13" lengthAdjust="spacing" textLength="361" x="149" y="169.8555">Wenn die Zeit abgelaufen ist, wird der Prozess gestoppt...</text><polygon fill="#181818" points="668,202.9082,678,206.9082,668,210.9082,672,206.9082" style="stroke:#181818;stroke-width:1.0;"/><line style="stroke:#181818;stroke-width:1.0;" x1="535" x2="674" y1="206.9082" y2="206.9082"/><text fill="#000000" font-family="sans-serif" font-size="13" lengthAdjust="spacing" textLength="29" x="542" y="202.166">start</text><path d="M323,187.5977 L323,212.5977 L525,212.5977 L525,197.5977 L515,187.5977 L323,187.5977 " fill="#FEFFDD" style="stroke:#181818;stroke-width:0.5;"/><path d="M515,187.5977 L515,197.5977 L525,197.5977 L515,187.5977 " fill="#FEFFDD" style="stroke:#181818;stroke-width:0.5;"/><text fill="#000000" font-family="sans-serif" font-size="13" lengthAdjust="spacing" textLength="181" x="329" y="205.166">... und der nächste gestartet.</text><polygon fill="#181818" points="673,263.2188,683,267.2188,673,271.2188,677,267.2188" style="stroke:#181818;stroke-width:1.0;"/><line style="stroke:#181818;stroke-width:1.0;" x1="540" x2="679" y1="267.2188" y2="267.2188"/><text fill="#000000" font-family="sans-serif" font-size="13" lengthAdjust="spacing" textLength="28" x="547" y="262.4766">stop</text><polygon fill="#181818" points="737,292.5293,747,296.5293,737,300.5293,741,296.5293" style="stroke:#181818;stroke-width:1.0;"/><line style="stroke:#181818;stroke-width:1.0;" x1="535" x2="743" y1="296.5293" y2="296.5293"/><text fill="#000000" font-family="sans-serif" font-size="13" lengthAdjust="spacing" textLength="29" x="542" y="291.7871">start</text><polygon fill="#181818" points="742,349.8398,752,353.8398,742,357.8398,746,353.8398" style="stroke:#181818;stroke-width:1.0;"/><line style="stroke:#181818;stroke-width:1.0;" x1="535" x2="748" y1="353.8398" y2="353.8398"/><text fill="#000000" font-family="sans-serif" font-size="13" lengthAdjust="spacing" textLength="28" x="542" y="349.0977">stop</text><!--MD5=[155590da31da32535f4d1574350a585a]
@startuml

title Round Robin Scheduling

activate Scheduler
Scheduler -> "Task A": start
note left
Der Scheduler startet einen Prozess und lässt ihn für eine definierte Zeit laufen.
end note
deactivate Scheduler
activate "Task A"
...
Scheduler -> "Task A": stop
note left: Wenn die Zeit abgelaufen ist, wird der Prozess gestoppt...
deactivate "Task A"

activate Scheduler
Scheduler -> "Task B": start
note left: ... und der nächste gestartet.
deactivate Scheduler
activate "Task B"
...
Scheduler -> "Task B": stop
deactivate "Task B"

activate Scheduler
Scheduler -> "Task C": start
deactivate Scheduler
activate "Task C"
...
Scheduler -> "Task C": stop
deactivate "Task C"

@enduml

PlantUML version 1.2022.4(Sat Apr 09 15:29:17 CEST 2022)
(GPL source distribution)
Java Runtime: OpenJDK Runtime Environment
JVM: OpenJDK 64-Bit Server VM
Default Encoding: UTF-8
Language: de
Country: CH
--></g></svg>