<?xml version="1.0" encoding="UTF-8" standalone="no"?><svg xmlns="http://www.w3.org/2000/svg" xmlns:xlink="http://www.w3.org/1999/xlink" contentStyleType="text/css" height="237px" preserveAspectRatio="none" style="width:817px;height:237px;background:#FFFFFF;" version="1.1" viewBox="0 0 817 237" width="817px" zoomAndPan="magnify"><defs/><g><rect fill="#FFFFFF" height="29.3105" style="stroke:#181818;stroke-width:1.0;" width="10" x="563" y="155.041"/><line style="stroke:#181818;stroke-width:0.5;stroke-dasharray:5.0,5.0;" x1="354" x2="354" y1="36.4883" y2="202.3516"/><line style="stroke:#181818;stroke-width:0.5;stroke-dasharray:5.0,5.0;" x1="568" x2="568" y1="36.4883" y2="202.3516"/><rect fill="#E2E2F0" height="30.4883" rx="2.5" ry="2.5" style="stroke:#181818;stroke-width:0.5;" width="24" x="342" y="5"/><text fill="#000000" font-family="sans-serif" font-size="14" lengthAdjust="spacing" textLength="10" x="349" y="25.5352">A</text><rect fill="#E2E2F0" height="30.4883" rx="2.5" ry="2.5" style="stroke:#181818;stroke-width:0.5;" width="24" x="342" y="201.3516"/><text fill="#000000" font-family="sans-serif" font-size="14" lengthAdjust="spacing" textLength="10" x="349" y="221.8867">A</text><rect fill="#E2E2F0" height="30.4883" rx="2.5" ry="2.5" style="stroke:#181818;stroke-width:0.5;" width="22" x="557" y="5"/><text fill="#000000" font-family="sans-serif" font-size="14" lengthAdjust="spacing" textLength="8" x="564" y="25.5352">B</text><rect fill="#E2E2F0" height="30.4883" rx="2.5" ry="2.5" style="stroke:#181818;stroke-width:0.5;" width="22" x="557" y="201.3516"/><text fill="#000000" font-family="sans-serif" font-size="14" lengthAdjust="spacing" textLength="8" x="564" y="221.8867">B</text><rect fill="#FFFFFF" height="29.3105" style="stroke:#181818;stroke-width:1.0;" width="10" x="563" y="155.041"/><line style="stroke:#181818;stroke-width:1.0;" x1="566" x2="556" y1="86.1094" y2="82.1094"/><line style="stroke:#181818;stroke-width:1.0;" x1="566" x2="556" y1="86.1094" y2="90.1094"/><line style="stroke:#181818;stroke-width:1.0;" x1="354" x2="567" y1="86.1094" y2="86.1094"/><text fill="#000000" font-family="sans-serif" font-size="13" lengthAdjust="spacing" textLength="190" x="361" y="81.3672">Asynchroner Operationsaufruf</text><path d="M35,51.4883 L35,106.4883 L349,106.4883 L349,61.4883 L339,51.4883 L35,51.4883 " fill="#FEFFDD" style="stroke:#181818;stroke-width:0.5;"/><path d="M339,51.4883 L339,61.4883 L349,61.4883 L339,51.4883 " fill="#FEFFDD" style="stroke:#181818;stroke-width:0.5;"/><text fill="#000000" font-family="sans-serif" font-size="13" lengthAdjust="spacing" textLength="130" x="41" y="69.0566">Asynchron bedeutet,</text><text fill="#000000" font-family="sans-serif" font-size="13" lengthAdjust="spacing" textLength="213" x="41" y="84.3672">dass der aufrufende Prozess nicht</text><text fill="#000000" font-family="sans-serif" font-size="13" lengthAdjust="spacing" textLength="293" x="41" y="99.6777">auf eine Antwort des anderen Prozesses wartet</text><polygon fill="#181818" points="551,151.041,561,155.041,551,159.041,555,155.041" style="stroke:#181818;stroke-width:1.0;"/><line style="stroke:#181818;stroke-width:1.0;" x1="354" x2="557" y1="155.041" y2="155.041"/><text fill="#000000" font-family="sans-serif" font-size="13" lengthAdjust="spacing" textLength="181" x="361" y="150.2988">Synchroner Operationsaufruf</text><path d="M578,117.4199 L578,157.4199 L810,157.4199 L810,127.4199 L800,117.4199 L578,117.4199 " fill="#FEFFDD" style="stroke:#181818;stroke-width:0.5;"/><path d="M800,117.4199 L800,127.4199 L810,127.4199 L800,117.4199 " fill="#FEFFDD" style="stroke:#181818;stroke-width:0.5;"/><text fill="#000000" font-family="sans-serif" font-size="13" lengthAdjust="spacing" textLength="211" x="584" y="134.9883">Mit Lebenslinien wird die Laufzeit</text><text fill="#000000" font-family="sans-serif" font-size="13" lengthAdjust="spacing" textLength="153" x="584" y="150.2988">des Prozesses angezeigt</text><path d="M5,117.4199 L5,157.4199 L349,157.4199 L349,127.4199 L339,117.4199 L5,117.4199 " fill="#FEFFDD" style="stroke:#181818;stroke-width:0.5;"/><path d="M339,117.4199 L339,127.4199 L349,127.4199 L339,117.4199 " fill="#FEFFDD" style="stroke:#181818;stroke-width:0.5;"/><text fill="#000000" font-family="sans-serif" font-size="13" lengthAdjust="spacing" textLength="178" x="11" y="134.9883">Synchron hingegen bedeuet,</text><text fill="#000000" font-family="sans-serif" font-size="13" lengthAdjust="spacing" textLength="323" x="11" y="150.2988">dass der Aufrufende Prozess auf die Antwort wartet</text><polygon fill="#181818" points="365,180.3516,355,184.3516,365,188.3516,361,184.3516" style="stroke:#181818;stroke-width:1.0;"/><line style="stroke:#181818;stroke-width:1.0;" x1="359" x2="567" y1="184.3516" y2="184.3516"/><text fill="#000000" font-family="sans-serif" font-size="13" lengthAdjust="spacing" textLength="181" x="371" y="179.6094">Synchroner Operationsaufruf</text><!--MD5=[36729949a9dc2914c148844e5d43e60f]
@startuml
A ->> B: Asynchroner Operationsaufruf
note left
Asynchron bedeutet,
dass der aufrufende Prozess nicht 
auf eine Antwort des anderen Prozesses wartet
end note
A -> B: Synchroner Operationsaufruf
activate B

note right
Mit Lebenslinien wird die Laufzeit
des Prozesses angezeigt
end note

note left
Synchron hingegen bedeuet, 
dass der Aufrufende Prozess auf die Antwort wartet
end note
B -> A: Synchroner Operationsaufruf

deactivate B
@enduml

PlantUML version 1.2022.4(Sat Apr 09 15:29:17 CEST 2022)
(GPL source distribution)
Java Runtime: OpenJDK Runtime Environment
JVM: OpenJDK 64-Bit Server VM
Default Encoding: UTF-8
Language: de
Country: CH
--></g></svg>